Coordinates
version=1
nRows=11
nColumns=21
inDegrees=yes

Units are S.I. units (second, meters, Newtons, ...)
If the header above contains a line with 'inDegrees', this indicates whether rotational values are in degrees (yes) or radians (no).

endheader
time	sternoclavicular_r2	sternoclavicular_r3	unrotscap_r3	unrotscap_r2	acromioclavicular_r2	acromioclavicular_r3	acromioclavicular_r1	unrothum_r1	unrothum_r3	unrothum_r2	elv_angle	shoulder_elev	shoulder1_r2	shoulder_rot	elbow_flexion	pro_sup	deviation	flexion	wrist_hand_r1	wrist_hand_r3
      0.00000000	     -0.00204531	      0.00086630	     -0.00086630	      0.00204531	     -0.00041413	      0.00334688	      0.00150440	     -0.00150440	     -0.00334688	      0.00041413	     71.38835862	      0.00845168	    -71.38835862	     20.04577997	    129.99631607	      0.00000000	      0.00000000	     -0.00000000	     -0.00000000	      0.00000000
      0.10101010	     -0.00204406	      0.00086577	     -0.00086577	      0.00204406	     -0.00041388	      0.00334484	      0.00150348	     -0.00150348	     -0.00334484	      0.00041388	     70.83619191	      0.00844653	    -70.83619191	     20.04575877	    129.99631513	      0.00000000	      0.00000000	     -0.00000000	     -0.00000000	      0.00000000
      0.20202020	     -0.00204226	      0.00086500	     -0.00086500	      0.00204226	     -0.00041352	      0.00334189	      0.00150216	     -0.00150216	     -0.00334189	      0.00041352	     70.28435894	      0.00843907	    -70.28435894	     20.04573738	    129.99631412	      0.00000000	      0.00000000	     -0.00000000	     -0.00000000	      0.00000000
      0.30303030	     -0.00204075	      0.00086437	     -0.00086437	      0.00204075	     -0.00041321	      0.00333942	      0.00150105	     -0.00150105	     -0.00333942	      0.00041321	     69.73238624	      0.00843283	    -69.73238624	     20.04571107	    129.99631088	      0.00000000	      0.00000000	     -0.00000000	     -0.00000000	      0.00000000
      0.40404040	     -0.00203974	      0.00086394	     -0.00086394	      0.00203974	     -0.00041301	      0.00333776	      0.00150030	     -0.00150030	     -0.00333776	      0.00041301	     69.17938697	      0.00842864	    -69.17938697	     20.04567538	    129.99630325	      0.00000000	      0.00000000	     -0.00000000	     -0.00000000	      0.00000000
      0.50505051	     -0.00203945	      0.00086381	     -0.00086381	      0.00203945	     -0.00041295	      0.00333729	      0.00150009	     -0.00150009	     -0.00333729	      0.00041295	     68.62406832	      0.00842745	    -68.62406832	     20.04562597	    129.99628916	      0.00000000	      0.00000000	     -0.00000000	     -0.00000000	      0.00000000
      0.60606061	     -0.00204008	      0.00086408	     -0.00086408	      0.00204008	     -0.00041307	      0.00333832	      0.00150055	     -0.00150055	     -0.00333832	      0.00041307	     68.06473217	      0.00843006	    -68.06473217	     20.04555850	    129.99626650	      0.00000000	      0.00000000	     -0.00000000	     -0.00000000	      0.00000000
      0.70707071	     -0.00204170	      0.00086477	     -0.00086477	      0.00204170	     -0.00041340	      0.00334098	      0.00150175	     -0.00150175	     -0.00334098	      0.00041340	     67.49926560	      0.00843676	    -67.49926560	     20.04546858	    129.99623312	      0.00000000	      0.00000000	     -0.00000000	     -0.00000000	      0.00000000
      0.80808081	     -0.00204419	      0.00086582	     -0.00086582	      0.00204419	     -0.00041391	      0.00334505	      0.00150358	     -0.00150358	     -0.00334505	      0.00041391	     66.92511822	      0.00844704	    -66.92511822	     20.04535158	    129.99618666	      0.00000000	      0.00000000	     -0.00000000	     -0.00000000	      0.00000000
      0.90909091	     -0.00204716	      0.00086708	     -0.00086708	      0.00204716	     -0.00041451	      0.00334991	      0.00150576	     -0.00150576	     -0.00334991	      0.00041451	     66.33926186	      0.00845931	    -66.33926186	     20.04520256	    129.99612445	      0.00000000	      0.00000000	     -0.00000000	     -0.00000000	      0.00000000
      1.01010101	     -0.00204993	      0.00086825	     -0.00086825	      0.00204993	     -0.00041507	      0.00335444	      0.00150780	     -0.00150780	     -0.00335444	      0.00041507	     65.73812722	      0.00847077	    -65.73812722	     20.04501607	    129.99604333	      0.00000000	      0.00000000	     -0.00000000	     -0.00000000	      0.00000000
